<svg width="50" height="50" viewBox="0 0 50 50" fill="none" xmlns="http://www.w3.org/2000/svg">
<path d="M25.525 38.5542C26.8435 38.4641 28.1511 38.2535 29.4312 37.9251C31.0124 38.4004 32.6813 38.508 34.3104 38.2396C34.3754 38.2317 34.4408 38.2268 34.5062 38.2251C35.0875 38.2251 35.85 38.5584 36.9625 39.2605V38.1063C36.963 37.9052 37.0173 37.708 37.1199 37.535C37.2225 37.3621 37.3696 37.2198 37.5458 37.123C38.0306 36.8494 38.4785 36.5417 38.8896 36.2001C40.5104 34.8459 41.425 33.0376 41.425 31.1251C41.425 30.4938 41.325 29.8646 41.1271 29.2646C41.6187 28.3605 42.0104 27.4167 42.3021 26.4334C43.2396 27.8188 43.7438 29.4542 43.75 31.1251C43.75 33.7251 42.525 36.1501 40.4021 37.923C40.0465 38.2188 39.675 38.491 39.2875 38.7396V41.4438C39.2875 42.373 38.2 42.9084 37.4333 42.3542C36.7069 41.8197 35.9561 41.3192 35.1833 40.8542C34.9601 40.7255 34.7291 40.6107 34.4917 40.5105C33.8467 40.606 33.1957 40.654 32.5437 40.6542C29.8979 40.6542 27.4521 39.8688 25.525 38.5542ZM11.5229 33.148C8.18125 30.3501 6.25 26.5355 6.25 22.448C6.25 14.098 14.2333 7.4209 23.9812 7.4209C33.7312 7.4209 41.7167 14.0959 41.7167 22.448C41.7167 30.798 33.7312 37.473 23.9812 37.473C22.8854 37.473 21.8056 37.3896 20.7417 37.223C20.2833 37.3292 18.4458 38.4063 15.8 40.3126C14.8417 41.0042 13.4833 40.3376 13.4833 39.173V34.5626C12.7971 34.1384 12.1426 33.6649 11.525 33.1459M20.8063 34.3792C20.8868 34.3792 20.9681 34.3855 21.05 34.398C22.0083 34.5563 22.9854 34.6362 23.9812 34.6376C32.2167 34.6376 38.8063 29.1271 38.8063 22.4459C38.8063 15.7667 32.2167 10.2563 23.9833 10.2563C15.75 10.2563 9.15625 15.7709 9.15625 22.448C9.15625 25.6771 10.6979 28.7188 13.4187 30.9959C14.1049 31.5681 14.8521 32.082 15.6604 32.5376C15.8797 32.6593 16.0627 32.837 16.1908 33.0526C16.3189 33.2681 16.3875 33.5139 16.3896 33.7646V36.423C18.4833 35.0376 19.8604 34.3792 20.8063 34.3792Z" fill="#3E80F9"/>
<path d="M16.7959 25C17.4175 25 18.0136 24.7531 18.4532 24.3135C18.8927 23.874 19.1396 23.2779 19.1396 22.6562C19.1396 22.0346 18.8927 21.4385 18.4532 20.999C18.0136 20.5594 17.4175 20.3125 16.7959 20.3125C16.1743 20.3125 15.5782 20.5594 15.1386 20.999C14.6991 21.4385 14.4521 22.0346 14.4521 22.6562C14.4521 23.2779 14.6991 23.874 15.1386 24.3135C15.5782 24.7531 16.1743 25 16.7959 25ZM24.4146 25C25.0362 25 25.6324 24.7531 26.0719 24.3135C26.5115 23.874 26.7584 23.2779 26.7584 22.6562C26.7584 22.0346 26.5115 21.4385 26.0719 20.999C25.6324 20.5594 25.0362 20.3125 24.4146 20.3125C23.793 20.3125 23.1969 20.5594 22.7574 20.999C22.3178 21.4385 22.0709 22.0346 22.0709 22.6562C22.0709 23.2779 22.3178 23.874 22.7574 24.3135C23.1969 24.7531 23.793 25 24.4146 25ZM32.0313 25C32.6529 25 33.2491 24.7531 33.6886 24.3135C34.1281 23.874 34.3751 23.2779 34.3751 22.6562C34.3751 22.0346 34.1281 21.4385 33.6886 20.999C33.2491 20.5594 32.6529 20.3125 32.0313 20.3125C31.4097 20.3125 30.8136 20.5594 30.374 20.999C29.9345 21.4385 29.6876 22.0346 29.6876 22.6562C29.6876 23.2779 29.9345 23.874 30.374 24.3135C30.8136 24.7531 31.4097 25 32.0313 25Z" fill="#3E80F9"/>
</svg>
