<svg width="50" height="50" viewBox="0 0 50 50" fill="none" xmlns="http://www.w3.org/2000/svg">
<path fill-rule="evenodd" clip-rule="evenodd" d="M29.6876 5.20833C29.6876 5.0702 29.6327 4.93772 29.535 4.84005C29.4374 4.74237 29.3049 4.6875 29.1667 4.6875H14.5834C13.0639 4.6875 11.6067 5.29111 10.5323 6.36553C9.45785 7.43996 8.85425 8.8972 8.85425 10.4167V39.5833C8.85425 41.1028 9.45785 42.56 10.5323 43.6345C11.6067 44.7089 13.0639 45.3125 14.5834 45.3125H35.4168C36.9362 45.3125 38.3935 44.7089 39.4679 43.6345C40.5423 42.56 41.1459 41.1028 41.1459 39.5833V19.0563C41.1459 18.9181 41.091 18.7856 40.9934 18.688C40.8957 18.5903 40.7632 18.5354 40.6251 18.5354H31.2501C30.8357 18.5354 30.4383 18.3708 30.1452 18.0778C29.8522 17.7847 29.6876 17.3873 29.6876 16.9729V5.20833ZM31.2501 25.5208C31.6645 25.5208 32.0619 25.6855 32.3549 25.9785C32.648 26.2715 32.8126 26.6689 32.8126 27.0833C32.8126 27.4977 32.648 27.8952 32.3549 28.1882C32.0619 28.4812 31.6645 28.6458 31.2501 28.6458H18.7501C18.3357 28.6458 17.9383 28.4812 17.6452 28.1882C17.3522 27.8952 17.1876 27.4977 17.1876 27.0833C17.1876 26.6689 17.3522 26.2715 17.6452 25.9785C17.9383 25.6855 18.3357 25.5208 18.7501 25.5208H31.2501ZM31.2501 33.8542C31.6645 33.8542 32.0619 34.0188 32.3549 34.3118C32.648 34.6048 32.8126 35.0023 32.8126 35.4167C32.8126 35.8311 32.648 36.2285 32.3549 36.5215C32.0619 36.8145 31.6645 36.9792 31.2501 36.9792H18.7501C18.3357 36.9792 17.9383 36.8145 17.6452 36.5215C17.3522 36.2285 17.1876 35.8311 17.1876 35.4167C17.1876 35.0023 17.3522 34.6048 17.6452 34.3118C17.9383 34.0188 18.3357 33.8542 18.7501 33.8542H31.2501Z" fill="black"/>
<path d="M32.8125 5.88328C32.8125 5.49995 33.2146 5.2562 33.5125 5.49578C33.7653 5.69995 33.9896 5.93745 34.1854 6.20828L40.4625 14.952C40.6042 15.152 40.45 15.4104 40.2042 15.4104H33.3333C33.1952 15.4104 33.0627 15.3555 32.965 15.2578C32.8674 15.1601 32.8125 15.0277 32.8125 14.8895V5.88328Z" fill="black"/>
</svg>
