<svg width="38" height="38" viewBox="0 0 38 38" fill="none" xmlns="http://www.w3.org/2000/svg">
<path d="M22.1667 8.70841C22.1667 8.07853 22.4169 7.47443 22.8623 7.02904C23.3077 6.58364 23.9118 6.33341 24.5417 6.33341C25.1716 6.33341 25.7757 6.58364 26.2211 7.02904C26.6665 7.47443 26.9167 8.07853 26.9167 8.70841V19.0001M22.1667 8.70841V5.54175C22.1667 4.91186 21.9165 4.30777 21.4711 3.86237C21.0257 3.41697 20.4216 3.16675 19.7917 3.16675C19.1618 3.16675 18.5577 3.41697 18.1123 3.86237C17.6669 4.30777 17.4167 4.91186 17.4167 5.54175V7.91675M22.1667 8.70841V17.4167M17.4167 7.91675C17.4167 7.28686 17.1665 6.68277 16.7211 6.23737C16.2757 5.79197 15.6716 5.54175 15.0417 5.54175C14.4118 5.54175 13.8077 5.79197 13.3623 6.23737C12.9169 6.68277 12.6667 7.28686 12.6667 7.91675V21.3149L10.1017 18.742C9.83646 18.4756 9.51786 18.2683 9.16682 18.1338C8.81578 17.9993 8.44025 17.9406 8.0649 17.9615C7.68955 17.9824 7.32288 18.0826 6.98898 18.2553C6.65508 18.428 6.3615 18.6694 6.12753 18.9637C5.75742 19.4278 5.55154 20.0015 5.54209 20.5951C5.53264 21.1887 5.72014 21.7686 6.07528 22.2443L11.7753 29.5245C12.8662 30.9178 13.4584 33.0648 13.4584 34.8334M17.4167 7.91675V15.8334M28.5 34.8334V32.9904C28.5124 32.1472 28.8303 31.3371 29.3946 30.7104C30.0359 29.9789 30.8386 28.9656 31.1426 28.1707C31.6667 26.8012 31.6667 25.0801 31.6667 21.6395V11.8751C31.6667 11.2452 31.4165 10.6411 30.9711 10.1957C30.5257 9.7503 29.9216 9.50008 29.2917 9.50008C28.6618 9.50008 28.0577 9.7503 27.6123 10.1957C27.1669 10.6411 26.9167 11.2452 26.9167 11.8751" stroke="#FF0000" stroke-width="1.5" stroke-linecap="round" stroke-linejoin="round"/>
</svg>
