<svg width="48" height="48" viewBox="0 0 48 48" fill="none" xmlns="http://www.w3.org/2000/svg">
<path d="M28 26C26.3333 26 24.9167 25.4167 23.75 24.25C22.5833 23.0833 22 21.6667 22 20C22 18.3333 22.5833 16.9167 23.75 15.75C24.9167 14.5833 26.3333 14 28 14C29.6667 14 31.0833 14.5833 32.25 15.75C33.4167 16.9167 34 18.3333 34 20C34 21.6667 33.4167 23.0833 32.25 24.25C31.0833 25.4167 29.6667 26 28 26ZM14 32C12.9 32 11.9587 31.6087 11.176 30.826C10.3933 30.0433 10.0013 29.1013 10 28V12C10 10.9 10.392 9.95867 11.176 9.176C11.96 8.39333 12.9013 8.00133 14 8H42C43.1 8 44.042 8.392 44.826 9.176C45.61 9.96 46.0013 10.9013 46 12V28C46 29.1 45.6087 30.042 44.826 30.826C44.0433 31.61 43.1013 32.0013 42 32H14ZM18 28H38C38 26.9 38.392 25.9587 39.176 25.176C39.96 24.3933 40.9013 24.0013 42 24V16C40.9 16 39.9587 15.6087 39.176 14.826C38.3933 14.0433 38.0013 13.1013 38 12H18C18 13.1 17.6087 14.042 16.826 14.826C16.0433 15.61 15.1013 16.0013 14 16V24C15.1 24 16.042 24.392 16.826 25.176C17.61 25.96 18.0013 26.9013 18 28ZM38 40H6C4.9 40 3.95867 39.6087 3.176 38.826C2.39333 38.0433 2.00133 37.1013 2 36V16C2 15.4333 2.192 14.9587 2.576 14.576C2.96 14.1933 3.43467 14.0013 4 14C4.56533 13.9987 5.04067 14.1907 5.426 14.576C5.81133 14.9613 6.00267 15.436 6 16V36H38C38.5667 36 39.042 36.192 39.426 36.576C39.81 36.96 40.0013 37.4347 40 38C39.9987 38.5653 39.8067 39.0407 39.424 39.426C39.0413 39.8113 38.5667 40.0027 38 40Z" fill="#16A34A"/>
</svg>
